ply
format ascii 1.0
comment Exported by [ProBuilder](http://www.procore3d.com/probuilder)
comment 3/23/2018 9:31:29 PM
element vertex 442
property float32 x
property float32 y
property float32 z
property float32 nx
property float32 ny
property float32 nz
property uint8 red
property uint8 green
property uint8 blue
property uint8 alpha
element face 118
property list uint8 int32 vertex_index
end_header
-17.3972 17.69141 -51.27747 0 0 -1 255 255 255 255
-33.56641 17.69141 -51.27747 0 0 -1 255 255 255 255
-33.56641 15.19141 -51.27747 0 0 -1 255 255 255 255
-17.3972 15.9904 -51.27747 0 0 -1 255 255 255 255
-33.56641 15.19141 -51.27747 0 0 -1 255 255 255 255
-33.56641 12.69141 -51.27747 0 0 -1 255 255 255 255
-17.3972 12.69141 -51.27747 0 0 -1 255 255 255 255
-17.3972 15.9904 -51.27747 0 0 -1 255 255 255 255
-33.56641 17.69141 -51.27747 1 0 0 255 255 255 255
-33.56641 17.69141 -56.23602 1 0 0 255 255 255 255
-33.56641 15.19141 -56.23602 1 0 0 255 255 255 255
-33.56641 15.19141 -51.27747 1 0 0 255 255 255 255
-33.56641 17.69141 -56.23602 1 0 0 255 255 255 255
-33.56641 17.69141 -61.19457 1 0 0 255 255 255 255
-33.56641 15.19141 -61.19457 1 0 0 255 255 255 255
-33.56641 15.19141 -56.23602 1 0 0 255 255 255 255
-33.56641 15.19141 -61.19457 1 0 0 255 255 255 255
-33.56641 12.69141 -61.19457 1 0 0 255 255 255 255
-33.56641 12.69141 -56.23602 1 0 0 255 255 255 255
-33.56641 15.19141 -56.23602 1 0 0 255 255 255 255
-33.56641 12.69141 -56.23602 1 0 0 255 255 255 255
-33.56641 12.69141 -51.27747 1 0 0 255 255 255 255
-33.56641 15.19141 -51.27747 1 0 0 255 255 255 255
-33.56641 15.19141 -56.23602 1 0 0 255 255 255 255
-33.56641 17.69141 -61.19457 0 0 1 255 255 255 255
-17.3972 17.69141 -61.19457 0 0 1 255 255 255 255
-17.3972 15.19141 -61.19457 0 0 1 255 255 255 255
-33.56641 15.19141 -61.19457 0 0 1 255 255 255 255
-17.3972 12.69141 -61.19457 0 0 1 255 255 255 255
-33.56641 12.69141 -61.19457 0 0 1 255 255 255 255
-33.56641 15.19141 -61.19457 0 0 1 255 255 255 255
-17.3972 15.19141 -61.19457 0 0 1 255 255 255 255
-3.566406 17.69141 -61.19457 -1 0 0 255 255 255 255
-3.566406 17.69141 -56.23602 -1 0 0 255 255 255 255
-3.566406 15.19141 -56.23602 -1 0 0 255 255 255 255
-3.566406 15.19141 -61.19457 -1 0 0 255 255 255 255
-3.566406 17.69141 -56.23602 -1 0 0 255 255 255 255
-3.566406 17.69141 -51.27747 -1 0 0 255 255 255 255
-3.566406 15.19141 -51.27747 -1 0 0 255 255 255 255
-3.566406 15.19141 -56.23602 -1 0 0 255 255 255 255
-3.566406 15.19141 -51.27747 -1 0 0 255 255 255 255
-3.566406 12.69141 -51.27747 -1 0 0 255 255 255 255
-3.566406 12.69141 -56.23602 -1 0 0 255 255 255 255
-3.566406 15.19141 -56.23602 -1 0 0 255 255 255 255
-3.566406 12.69141 -56.23602 -1 0 0 255 255 255 255
-3.566406 12.69141 -61.19457 -1 0 0 255 255 255 255
-3.566406 15.19141 -61.19457 -1 0 0 255 255 255 255
-3.566406 15.19141 -56.23602 -1 0 0 255 255 255 255
-17.3972 17.69141 -61.19457 0 -1 0 255 255 255 255
-33.56641 17.69141 -61.19457 0 -1 0 255 255 255 255
-33.56641 17.69141 -56.23602 0 -1 0 255 255 255 255
-17.3972 17.69141 -56.23602 0 -1 0 255 255 255 255
-33.56641 17.69141 -56.23602 0 -1 0 255 255 255 255
-33.56641 17.69141 -51.27747 0 -1 0 255 255 255 255
-17.3972 17.69141 -51.27747 0 -1 0 255 255 255 255
-17.3972 17.69141 -56.23602 0 -1 0 255 255 255 255
-17.3972 12.69141 -51.27747 0 1 0 255 255 255 255
-33.56641 12.69141 -51.27747 0 1 0 255 255 255 255
-33.56641 12.69141 -56.23602 0 1 0 255 255 255 255
-17.3972 12.69141 -56.23602 0 1 0 255 255 255 255
-33.56641 12.69141 -56.23602 0 1 0 255 255 255 255
-33.56641 12.69141 -61.19457 0 1 0 255 255 255 255
-17.3972 12.69141 -61.19457 0 1 0 255 255 255 255
-17.3972 12.69141 -56.23602 0 1 0 255 255 255 255
-3.566406 15.19141 -51.27747 0 0 -0.9999999 255 255 255 255
-3.566406 17.69141 -51.27747 0 0 -1 255 255 255 255
-14.67176 17.69141 -51.27747 0 0 -0.9999999 255 255 255 255
-14.67176 15.9904 -51.27747 0 0 -0.9999999 255 255 255 255
-14.67176 17.69141 -51.27747 0 0 -1 255 255 255 255
-17.3972 17.69141 -51.27747 0 0 -1 255 255 255 255
-17.3972 15.9904 -51.27747 0 0 -1 255 255 255 255
-14.67176 15.9904 -51.27747 0 0 -1 255 255 255 255
-3.566406 12.69141 -51.27747 0 0 -1 255 255 255 255
-3.566406 15.19141 -51.27747 0 0 -1 255 255 255 255
-14.67176 15.9904 -51.27747 0 0 -1 255 255 255 255
-14.67176 12.69141 -51.27747 0 0 -1 255 255 255 255
-14.67176 15.9904 -22.72277 0 0 -1 255 255 255 255
-17.3972 15.9904 -22.72277 0 0 -1 255 255 255 255
-17.3972 12.69141 -22.72277 0 0 -1 255 255 255 255
-14.67176 12.69141 -22.72277 0 0 -1 255 255 255 255
-3.566406 15.19141 -61.19457 0 0 1 255 255 255 255
-14.67176 15.19141 -61.19457 0 0 1 255 255 255 255
-14.67176 17.69141 -61.19457 0 0 1 255 255 255 255
-3.566406 17.69141 -61.19457 0 0 1 255 255 255 255
-14.67176 15.19141 -61.19457 0 0 1 255 255 255 255
-17.3972 15.19141 -61.19457 0 0 1 255 255 255 255
-17.3972 17.69141 -61.19457 0 0 1 255 255 255 255
-14.67176 17.69141 -61.19457 0 0 1 255 255 255 255
-3.566406 12.69141 -61.19457 0 0 1 255 255 255 255
-14.67176 12.69141 -61.19457 0 0 1 255 255 255 255
-14.67176 15.19141 -61.19457 0 0 1 255 255 255 255
-3.566406 15.19141 -61.19457 0 0 1 255 255 255 255
-14.67176 12.69141 -61.19457 0 0 1 255 255 255 255
-17.3972 12.69141 -61.19457 0 0 1 255 255 255 255
-17.3972 15.19141 -61.19457 0 0 1 255 255 255 255
-14.67176 15.19141 -61.19457 0 0 1 255 255 255 255
-17.3972 17.69141 -61.19457 0 -1 0 255 255 255 255
-17.3972 17.69141 -56.23602 0 -1 0 255 255 255 255
-14.67176 17.69141 -56.23602 0 -1 0 255 255 255 255
-14.67176 17.69141 -61.19457 0 -1 0 255 255 255 255
-14.67176 17.69141 -56.23602 0 -1 0 255 255 255 255
-3.566406 17.69141 -56.23602 0 -1 0 255 255 255 255
-3.566406 17.69141 -61.19457 0 -1 0 255 255 255 255
-14.67176 17.69141 -61.19457 0 -1 0 255 255 255 255
-17.3972 17.69141 -56.23602 0 -1 0 255 255 255 255
-17.3972 17.69141 -51.27747 0 -1 0 255 255 255 255
-14.67176 17.69141 -51.27747 0 -1 0 255 255 255 255
-14.67176 17.69141 -56.23602 0 -1 0 255 255 255 255
-14.67176 17.69141 -51.27747 0 -1 0 255 255 255 255
-3.566406 17.69141 -51.27747 0 -1 0 255 255 255 255
-3.566406 17.69141 -56.23602 0 -1 0 255 255 255 255
-14.67176 17.69141 -56.23602 0 -1 0 255 255 255 255
-17.3972 12.69141 -56.23602 0 1 0 255 255 255 255
-14.67176 12.69141 -56.23602 0 1 0 255 255 255 255
-14.67176 12.69141 -51.27747 0 1 0 255 255 255 255
-17.3972 12.69141 -51.27747 0 1 0 255 255 255 255
-14.67176 12.69141 -56.23602 0 1 0 255 255 255 255
-3.566406 12.69141 -56.23602 0 1 0 255 255 255 255
-3.566406 12.69141 -51.27747 0 1 0 255 255 255 255
-14.67176 12.69141 -51.27747 0 1 0 255 255 255 255
-17.3972 12.69141 -61.19457 0 1 0 255 255 255 255
-14.67176 12.69141 -61.19457 0 1 0 255 255 255 255
-14.67176 12.69141 -56.23602 0 1 0 255 255 255 255
-17.3972 12.69141 -56.23602 0 1 0 255 255 255 255
-14.67176 12.69141 -61.19457 0 1 0 255 255 255 255
-3.566406 12.69141 -61.19457 0 1 0 255 255 255 255
-3.566406 12.69141 -56.23602 0 1 0 255 255 255 255
-14.67176 12.69141 -56.23602 0 1 0 255 255 255 255
-14.67176 12.69141 -51.27747 -1 0 0 255 255 255 255
-14.67176 15.9904 -51.27747 -1 0 0 255 255 255 255
-14.67176 12.69141 -44.35287 -1 0 0 255 255 255 255
-14.67176 15.9904 -44.35287 -1 0 0 255 255 255 255
-14.67176 15.9904 -51.27747 0 -1 0 255 255 255 255
-17.3972 15.9904 -51.27747 0 -1 0 255 255 255 255
-14.67176 15.9904 -44.35287 0 -1 0 255 255 255 255
-17.3972 15.9904 -44.35287 0 -1 0 255 255 255 255
-17.3972 15.9904 -51.27747 1 0 0 255 255 255 255
-17.3972 12.69141 -51.27747 1 0 0 255 255 255 255
-17.3972 15.9904 -44.35287 1 0 0 255 255 255 255
-17.3972 12.69141 -44.35287 1 0 0 255 255 255 255
-17.3972 12.69141 -51.27747 0 1 0 255 255 255 255
-14.67176 12.69141 -51.27747 0 1 0 255 255 255 255
-17.3972 12.69141 -44.35287 0 1 0 255 255 255 255
-14.67176 12.69141 -44.35287 0 1 0 255 255 255 255
-14.67176 12.69141 -44.35287 -1 0 0 255 255 255 255
-14.67176 15.9904 -44.35287 -1 0 0 255 255 255 255
-14.67176 12.69141 -31.03231 -1 0 0 255 255 255 255
-14.67176 15.9904 -31.03231 -1 0 0 255 255 255 255
-14.67176 15.9904 -44.35287 0 -1 0 255 255 255 255
-17.3972 15.9904 -44.35287 0 -1 0 255 255 255 255
-14.67176 15.9904 -31.03231 0 -1 0 255 255 255 255
-17.3972 15.9904 -31.03231 0 -1 0 255 255 255 255
-17.3972 15.9904 -44.35287 1 0 0 255 255 255 255
-17.3972 12.69141 -44.35287 1 0 0 255 255 255 255
-17.3972 15.9904 -31.03231 1 0 0 255 255 255 255
-17.3972 12.69141 -31.03231 1 0 0 255 255 255 255
-17.3972 12.69141 -44.35287 0 1 0 255 255 255 255
-14.67176 12.69141 -44.35287 0 1 0 255 255 255 255
-17.3972 12.69141 -31.03231 0 1 0 255 255 255 255
-14.67176 12.69141 -31.03231 0 1 0 255 255 255 255
-14.67176 12.69141 -31.03231 -1 0 0 255 255 255 255
-14.67176 15.9904 -31.03231 -1 0 0 255 255 255 255
-14.67176 12.69141 -27.29465 -1 0 0 255 255 255 255
-14.67176 15.9904 -27.29465 -1 0 0 255 255 255 255
-14.67176 15.9904 -31.03231 0 -1 0 255 255 255 255
-17.3972 15.9904 -31.03231 0 -1 0 255 255 255 255
-14.67176 15.9904 -27.29465 0 -1 0 255 255 255 255
-17.3972 15.9904 -27.29465 0 -1 0 255 255 255 255
-17.3972 15.9904 -31.03231 1 0 0 255 255 255 255
-17.3972 12.69141 -31.03231 1 0 0 255 255 255 255
-17.3972 15.9904 -27.29465 1 0 0 255 255 255 255
-17.3972 12.69141 -27.29465 1 0 0 255 255 255 255
-17.3972 12.69141 -31.03231 0 1 0 255 255 255 255
-14.67176 12.69141 -31.03231 0 1 0 255 255 255 255
-17.3972 12.69141 -27.29465 0 1 0 255 255 255 255
-14.67176 12.69141 -27.29465 0 1 0 255 255 255 255
-14.67176 12.69141 -27.29465 -1 0 0 255 255 255 255
-14.67176 15.9904 -27.29465 -1 0 0 255 255 255 255
-14.67176 12.69141 -22.72277 -1 0 0 255 255 255 255
-14.67176 15.9904 -22.72277 -1 0 0 255 255 255 255
-14.67176 15.9904 -27.29465 0 -1 0 255 255 255 255
-17.3972 15.9904 -27.29465 0 -1 0 255 255 255 255
-14.67176 15.9904 -22.72277 0 -1 0 255 255 255 255
-17.3972 15.9904 -22.72277 0 -1 0 255 255 255 255
-69.81811 15.9904 -27.29465 1 0 0 255 255 255 255
-69.81811 12.69141 -27.29465 1 0 0 255 255 255 255
-69.81811 15.9904 -22.72277 1 0 0 255 255 255 255
-69.81811 12.69141 -22.72277 1 0 0 255 255 255 255
-17.3972 12.69141 -27.29465 0 1 0 255 255 255 255
-14.67176 12.69141 -27.29465 0 1 0 255 255 255 255
-17.3972 12.69141 -22.72277 0 1 0 255 255 255 255
-14.67176 12.69141 -22.72277 0 1 0 255 255 255 255
-17.3972 15.9904 -27.29465 0 0 1 255 255 255 255
-17.3972 12.69141 -27.29465 0 0 1 255 255 255 255
-38.43913 15.9904 -27.29465 0 0 1 255 255 255 255
-38.43913 12.69141 -27.29465 0 0 1 255 255 255 255
-17.3972 15.9904 -22.72277 0 -0.9999999 0 255 255 255 255
-17.3972 15.9904 -27.29465 0 -0.9999999 0 255 255 255 255
-38.43913 15.9904 -22.72277 0 -0.9999999 0 255 255 255 255
-38.43913 15.9904 -27.29465 0 -0.9999999 0 255 255 255 255
-17.3972 12.69141 -27.29465 0 0.9999999 0 255 255 255 255
-17.3972 12.69141 -22.72277 0 0.9999999 0 255 255 255 255
-38.43913 12.69141 -27.29465 0 0.9999999 0 255 255 255 255
-38.43913 12.69141 -22.72277 0 0.9999999 0 255 255 255 255
-17.3972 12.69141 -22.72277 0 0 -1 255 255 255 255
-17.3972 15.9904 -22.72277 0 0 -1 255 255 255 255
-38.43913 12.69141 -22.72277 0 0 -1 255 255 255 255
-38.43913 15.9904 -22.72277 0 0 -1 255 255 255 255
-38.43913 15.9904 -50.51703 0 0 1 255 255 255 255
-38.43913 12.69141 -50.51703 0 0 1 255 255 255 255
-69.81811 15.9904 -50.51703 0 0 1 255 255 255 255
-69.81811 12.69141 -50.51703 0 0 1 255 255 255 255
-38.43913 56.66974 -22.72277 0 -1 0 255 255 255 255
-38.43913 56.66974 -27.29465 0 -1 0 255 255 255 255
-69.81811 56.66974 -22.72277 0 -1 0 255 255 255 255
-69.81811 56.66974 -27.29465 0 -1 0 255 255 255 255
-38.43913 12.69141 -27.29465 0 1 0 255 255 255 255
-38.43913 12.69141 -22.72277 0 1 0 255 255 255 255
-69.81811 12.69141 -27.29465 0 1 0 255 255 255 255
-69.81811 12.69141 -22.72277 0 1 0 255 255 255 255
-38.43913 15.9904 -27.29465 -1 0 0 255 255 255 255
-38.43913 12.69141 -27.29465 -1 0 0 255 255 255 255
-38.43913 15.9904 -50.51703 -1 0 0 255 255 255 255
-38.43913 12.69141 -50.51703 -1 0 0 255 255 255 255
-69.81811 56.66974 -27.29465 0 -0.9999999 0 255 255 255 255
-38.43913 56.66974 -27.29465 0 -0.9999999 0 255 255 255 255
-69.81811 56.66974 -50.51703 0 -0.9999999 0 255 255 255 255
-38.43913 56.66974 -50.51703 0 -0.9999999 0 255 255 255 255
-38.43913 12.69141 -27.29465 0 0.9999999 0 255 255 255 255
-69.81811 12.69141 -27.29465 0 0.9999999 0 255 255 255 255
-38.43913 12.69141 -50.51703 0 0.9999999 0 255 255 255 255
-69.81811 12.69141 -50.51703 0 0.9999999 0 255 255 255 255
-69.81811 12.69141 -27.29465 1 0 0 255 255 255 255
-69.81811 15.9904 -27.29465 1 0 0 255 255 255 255
-69.81811 12.69141 -50.51703 1 0 0 255 255 255 255
-69.81811 15.9904 -50.51703 1 0 0 255 255 255 255
-38.43913 12.69141 -22.72277 -1 0 0 255 255 255 255
-38.43913 15.9904 -22.72277 -1 0 0 255 255 255 255
-38.43913 12.69141 24.62846 -1 0 0 255 255 255 255
-38.43913 15.9904 24.62846 -1 0 0 255 255 255 255
-38.43913 56.66974 -22.72277 0 -1 0 255 255 255 255
-69.81811 56.66974 -22.72277 0 -1 0 255 255 255 255
-38.43913 56.66974 24.62846 0 -1 0 255 255 255 255
-69.81811 56.66974 24.62846 0 -1 0 255 255 255 255
-69.81811 15.9904 -22.72277 1 0 0 255 255 255 255
-69.81811 12.69141 -22.72277 1 0 0 255 255 255 255
-69.81811 15.9904 24.62846 1 0 0 255 255 255 255
-69.81811 12.69141 24.62846 1 0 0 255 255 255 255
-69.81811 15.9904 -50.51703 1 0 0 255 255 255 255
-69.81811 15.9904 -27.29465 1 0 0 255 255 255 255
-69.81811 43.36975 -50.51703 1 0 0 255 255 255 255
-69.81811 43.36975 -27.29465 1 0 0 255 255 255 255
-38.43913 15.9904 24.62846 -1 0 0 255 255 255 255
-38.43913 15.9904 -22.72277 -1 0 0 255 255 255 255
-38.43913 43.36975 24.62846 -1 0 0 255 255 255 255
-38.43913 43.36975 -22.72277 -1 0 0 255 255 255 255
-69.81811 15.9904 -22.72277 1 0 0 255 255 255 255
-69.81811 15.9904 24.62846 1 0 0 255 255 255 255
-69.81811 43.36975 -22.72277 1 0 0 255 255 255 255
-69.81811 43.36975 24.62846 1 0 0 255 255 255 255
-38.43913 15.9904 -22.72277 -1 0 0 255 255 255 255
-38.43913 15.9904 -27.29465 -1 0 0 255 255 255 255
-38.43913 43.36975 -22.72277 -1 0 0 255 255 255 255
-38.43913 43.36975 -27.29465 -1 0 0 255 255 255 255
-69.81811 15.9904 -27.29465 1 0 0 255 255 255 255
-69.81811 15.9904 -22.72277 1 0 0 255 255 255 255
-69.81811 43.36975 -27.29465 1 0 0 255 255 255 255
-69.81811 43.36975 -22.72277 1 0 0 255 255 255 255
-38.43913 15.9904 -27.29465 -1 0 0 255 255 255 255
-38.43913 15.9904 -50.51703 -1 0 0 255 255 255 255
-38.43913 43.36975 -27.29465 -1 0 0 255 255 255 255
-38.43913 43.36975 -50.51703 -1 0 0 255 255 255 255
-38.43913 15.9904 -50.51703 0 0 1 255 255 255 255
-69.81811 15.9904 -50.51703 0 0 1 255 255 255 255
-38.43913 43.36975 -50.51703 0 0 1 255 255 255 255
-69.81811 43.36975 -50.51703 0 0 1 255 255 255 255
-69.81811 43.36975 -50.51703 1 0 0 255 255 255 255
-69.81811 43.36975 -27.29465 1 0 0 255 255 255 255
-69.81811 56.66974 -50.51703 1 0 0 255 255 255 255
-69.81811 56.66974 -27.29465 1 0 0 255 255 255 255
-38.43913 43.36975 24.62846 -1 0 0 255 255 255 255
-38.43913 43.36975 -22.72277 -1 0 0 255 255 255 255
-38.43913 56.66974 24.62846 -1 0 0 255 255 255 255
-38.43913 56.66974 -22.72277 -1 0 0 255 255 255 255
-69.81811 43.36975 -22.72277 1 0 0 255 255 255 255
-69.81811 43.36975 24.62846 1 0 0 255 255 255 255
-69.81811 56.66974 -22.72277 1 0 0 255 255 255 255
-69.81811 56.66974 24.62846 1 0 0 255 255 255 255
-38.43913 43.36975 -22.72277 -1 0 0 255 255 255 255
-38.43913 43.36975 -27.29465 -1 0 0 255 255 255 255
-38.43913 56.66974 -22.72277 -1 0 0 255 255 255 255
-38.43913 56.66974 -27.29465 -1 0 0 255 255 255 255
-69.81811 43.36975 -27.29465 1 0 0 255 255 255 255
-69.81811 43.36975 -22.72277 1 0 0 255 255 255 255
-69.81811 56.66974 -27.29465 1 0 0 255 255 255 255
-69.81811 56.66974 -22.72277 1 0 0 255 255 255 255
-38.43913 43.36975 -27.29465 -1 0 0 255 255 255 255
-38.43913 43.36975 -50.51703 -1 0 0 255 255 255 255
-38.43913 56.66974 -27.29465 -1 0 0 255 255 255 255
-38.43913 56.66974 -50.51703 -1 0 0 255 255 255 255
-38.43913 43.36975 -50.51703 0 0 1 255 255 255 255
-69.81811 43.36975 -50.51703 0 0 1 255 255 255 255
-38.43913 56.66974 -50.51703 0 0 1 255 255 255 255
-69.81811 56.66974 -50.51703 0 0 1 255 255 255 255
-49.32353 12.69141 24.62846 0 0 -1 255 255 255 255
-49.32353 15.9904 24.62846 0 0 -1 255 255 255 255
-60.81945 15.9904 24.62846 0 0 -1 255 255 255 255
-60.81945 12.69141 24.62846 0 0 -1 255 255 255 255
-60.81945 15.9904 24.62846 0 0 -0.9999999 255 255 255 255
-69.81811 15.9904 24.62846 0 0 -0.9999999 255 255 255 255
-69.81811 12.69141 24.62846 0 0 -0.9999999 255 255 255 255
-60.81945 12.69141 24.62846 0 0 -0.9999999 255 255 255 255
-49.32353 15.9904 24.62846 0 0 -1 255 255 255 255
-49.32353 43.36975 24.62846 0 0 -1 255 255 255 255
-60.81945 43.36975 24.62846 0 0 -1 255 255 255 255
-60.81945 15.9904 24.62846 0 0 -1 255 255 255 255
-60.81945 43.36975 24.62846 0 0 -1 255 255 255 255
-69.81811 43.36975 24.62846 0 0 -1 255 255 255 255
-69.81811 15.9904 24.62846 0 0 -1 255 255 255 255
-60.81945 15.9904 24.62846 0 0 -1 255 255 255 255
-38.43913 56.66974 24.62846 0 0 -0.9999999 255 255 255 255
-69.81811 56.66974 24.62846 0 0 -1 255 255 255 255
-69.81811 43.36975 24.62846 0 0 -1 255 255 255 255
-60.81945 43.36975 24.62846 0 0 -1 255 255 255 255
-49.32353 43.36975 24.62846 0 0 -1 255 255 255 255
-38.43913 43.36975 24.62846 0 0 -1 255 255 255 255
-38.43913 12.69141 24.62846 0 0 -0.9999999 255 255 255 255
-38.43913 15.9904 24.62846 0 0 -0.9999999 255 255 255 255
-45.78123 15.9904 24.62846 0 0 -0.9999999 255 255 255 255
-45.78123 12.69141 24.62846 0 0 -0.9999999 255 255 255 255
-45.78123 15.9904 125.4204 0 0 -1 255 255 255 255
-49.32353 15.9904 125.4204 0 0 -1 255 255 255 255
-49.32353 12.69141 125.4204 0 0 -1 255 255 255 255
-45.78123 12.69141 125.4204 0 0 -1 255 255 255 255
-38.43913 15.9904 24.62846 0 0 -1 255 255 255 255
-38.43913 43.36975 24.62846 0 0 -1 255 255 255 255
-49.32353 43.36975 24.62846 0 0 -1 255 255 255 255
-49.32353 15.9904 24.62846 0 0 -0.9999999 255 255 255 255
-45.78123 15.9904 24.62846 0 0 -1 255 255 255 255
-69.81811 12.69141 24.62846 0 1 0 255 255 255 255
-69.81811 12.69141 -22.72277 0 1 0 255 255 255 255
-38.43913 12.69141 -22.72277 0 1 0 255 255 255 255
-38.43913 12.69141 24.62846 0 1 0 255 255 255 255
-45.78123 12.69141 24.62846 0 1 0 255 255 255 255
-49.32353 12.69141 24.62846 0 1 0 255 255 255 255
-60.81945 12.69141 24.62846 0 0.9999999 0 255 255 255 255
-45.78123 12.69141 24.62846 -1 0 0 255 255 255 255
-45.78123 15.9904 24.62846 -1 0 0 255 255 255 255
-45.78123 12.69141 69.93372 -1 0 0 255 255 255 255
-45.78123 15.9904 69.93372 -1 0 0 255 255 255 255
-45.78123 15.9904 24.62846 0 -1 0 255 255 255 255
-49.32353 15.9904 24.62846 0 -1 0 255 255 255 255
-45.78123 15.9904 69.93372 0 -1 0 255 255 255 255
-49.32353 15.9904 69.93372 0 -1 0 255 255 255 255
-49.32353 15.9904 24.62846 1 0 0 255 255 255 255
-49.32353 12.69141 24.62846 1 0 0 255 255 255 255
-49.32353 15.9904 69.93372 1 0 0 255 255 255 255
-49.32353 12.69141 69.93372 1 0 0 255 255 255 255
-49.32353 12.69141 24.62846 0 1 0 255 255 255 255
-45.78123 12.69141 24.62846 0 1 0 255 255 255 255
-49.32353 12.69141 69.93372 0 1 0 255 255 255 255
-45.78123 12.69141 69.93372 0 1 0 255 255 255 255
6.083897 12.69141 69.93372 -1 0 0 255 255 255 255
6.083897 15.9904 69.93372 -1 0 0 255 255 255 255
6.083897 12.69141 125.4204 -1 0 0 255 255 255 255
6.083897 15.9904 125.4204 -1 0 0 255 255 255 255
-45.78123 28.54822 69.93372 0 -1 0 255 255 255 255
-49.32353 28.54822 69.93372 0 -1 0 255 255 255 255
-45.78123 28.54822 125.4204 0 -1 0 255 255 255 255
-49.32353 28.54822 125.4204 0 -1 0 255 255 255 255
-97.37941 15.9904 69.93372 1 0 0 255 255 255 255
-97.37941 12.69141 69.93372 1 0 0 255 255 255 255
-97.37941 15.9904 125.4204 1 0 0 255 255 255 255
-97.37941 12.69141 125.4204 1 0 0 255 255 255 255
-49.32353 12.69141 69.93372 0 1 0 255 255 255 255
-45.78123 12.69141 69.93372 0 1 0 255 255 255 255
-49.32353 12.69141 125.4204 0 1 0 255 255 255 255
-45.78123 12.69141 125.4204 0 1 0 255 255 255 255
-49.32353 15.9904 69.93372 0 0 1 255 255 255 255
-49.32353 12.69141 69.93372 0 0 1 255 255 255 255
-97.37941 15.9904 69.93372 0 0 1 255 255 255 255
-97.37941 12.69141 69.93372 0 0 1 255 255 255 255
-49.32353 28.54822 125.4204 0 -1 0 255 255 255 255
-49.32353 28.54822 69.93372 0 -1 0 255 255 255 255
-97.37941 28.54822 125.4204 0 -1 0 255 255 255 255
-97.37941 28.54822 69.93372 0 -1 0 255 255 255 255
-49.32353 12.69141 69.93372 0 1 0 255 255 255 255
-49.32353 12.69141 125.4204 0 1 0 255 255 255 255
-97.37941 12.69141 69.93372 0 1 0 255 255 255 255
-97.37941 12.69141 125.4204 0 1 0 255 255 255 255
-49.32353 12.69141 125.4204 0 0 -1 255 255 255 255
-49.32353 15.9904 125.4204 0 0 -1 255 255 255 255
-97.37941 12.69141 125.4204 0 0 -1 255 255 255 255
-97.37941 15.9904 125.4204 0 0 -1 255 255 255 255
-45.78123 12.69141 69.93372 0 0 1 255 255 255 255
-45.78123 15.9904 69.93372 0 0 1 255 255 255 255
6.083897 12.69141 69.93372 0 0 1 255 255 255 255
6.083897 15.9904 69.93372 0 0 1 255 255 255 255
-45.78123 12.69141 125.4204 0 1 0 255 255 255 255
-45.78123 12.69141 69.93372 0 1 0 255 255 255 255
6.083897 12.69141 125.4204 0 1 0 255 255 255 255
6.083897 12.69141 69.93372 0 1 0 255 255 255 255
-45.78123 28.54822 69.93372 0 -1 0 255 255 255 255
-45.78123 28.54822 125.4204 0 -1 0 255 255 255 255
6.083897 28.54822 69.93372 0 -1 0 255 255 255 255
6.083897 28.54822 125.4204 0 -1 0 255 255 255 255
-45.78123 15.9904 125.4204 0 0 -1 255 255 255 255
-45.78123 12.69141 125.4204 0 0 -1 255 255 255 255
6.083897 15.9904 125.4204 0 0 -1 255 255 255 255
6.083897 12.69141 125.4204 0 0 -1 255 255 255 255
-97.37941 15.9904 125.4204 0 0 -1 255 255 255 255
-49.32353 15.9904 125.4204 0 0 -1 255 255 255 255
-97.37941 28.54822 125.4204 0 0 -1 255 255 255 255
-49.32353 28.54822 125.4204 0 0 -1 255 255 255 255
6.083897 15.9904 69.93372 0 0 0.9999999 255 255 255 255
-45.78123 15.9904 69.93372 0 0 0.9999999 255 255 255 255
6.083897 28.54822 69.93372 0 0 0.9999999 255 255 255 255
-45.78123 28.54822 69.93372 0 0 0.9999999 255 255 255 255
-45.78123 15.9904 125.4204 0 0 -0.9999999 255 255 255 255
6.083897 15.9904 125.4204 0 0 -0.9999999 255 255 255 255
-45.78123 28.54822 125.4204 0 0 -0.9999999 255 255 255 255
6.083897 28.54822 125.4204 0 0 -0.9999999 255 255 255 255
6.083897 15.9904 125.4204 -1 0 0 255 255 255 255
6.083897 15.9904 69.93372 -1 0 0 255 255 255 255
6.083897 28.54822 125.4204 -1 0 0 255 255 255 255
6.083897 28.54822 69.93372 -1 0 0 255 255 255 255
-45.78123 15.9904 69.93372 0 0 1 255 255 255 255
-49.32353 15.9904 69.93372 0 0 1 255 255 255 255
-45.78123 28.54822 69.93372 0 0 1 255 255 255 255
-49.32353 28.54822 69.93372 0 0 1 255 255 255 255
-49.32353 15.9904 125.4204 0 0 -1 255 255 255 255
-45.78123 15.9904 125.4204 0 0 -1 255 255 255 255
-49.32353 28.54822 125.4204 0 0 -1 255 255 255 255
-45.78123 28.54822 125.4204 0 0 -1 255 255 255 255
-49.32353 15.9904 69.93372 0 0 1 255 255 255 255
-97.37941 15.9904 69.93372 0 0 1 255 255 255 255
-49.32353 28.54822 69.93372 0 0 1 255 255 255 255
-97.37941 28.54822 69.93372 0 0 1 255 255 255 255
-97.37941 15.9904 69.93372 1 0 0 255 255 255 255
-97.37941 15.9904 125.4204 1 0 0 255 255 255 255
-97.37941 28.54822 69.93372 1 0 0 255 255 255 255
-97.37941 28.54822 125.4204 1 0 0 255 255 255 255
4 2 1 0 3
4 5 4 7 6
4 10 9 8 11
4 14 13 12 15
4 17 16 19 18
4 20 23 22 21
4 25 24 27 26
4 31 30 29 28
4 33 32 35 34
4 37 36 39 38
4 40 43 42 41
4 47 46 45 44
4 48 51 50 49
4 55 54 53 52
4 57 56 59 58
4 60 63 62 61
4 67 66 65 64
4 70 69 68 71
4 75 74 73 72
4 78 77 76 79
4 83 82 81 80
4 87 86 85 84
4 91 90 89 88
4 95 94 93 92
4 99 98 97 96
4 102 101 100 103
4 107 106 105 104
4 110 109 108 111
4 115 114 113 112
4 119 118 117 116
4 123 122 121 120
4 127 126 125 124
4 130 131 129 128
4 134 135 133 132
4 138 139 137 136
4 142 143 141 140
4 146 147 145 144
4 150 151 149 148
4 154 155 153 152
4 158 159 157 156
4 162 163 161 160
4 166 167 165 164
4 170 171 169 168
4 174 175 173 172
4 178 179 177 176
4 182 183 181 180
4 186 187 185 184
4 190 191 189 188
4 194 195 193 192
4 198 199 197 196
4 202 203 201 200
4 206 207 205 204
4 210 211 209 208
4 214 215 213 212
4 218 219 217 216
4 222 223 221 220
4 226 227 225 224
4 230 231 229 228
4 234 235 233 232
4 238 239 237 236
4 242 243 241 240
4 246 247 245 244
4 250 251 249 248
4 254 255 253 252
4 258 259 257 256
4 262 263 261 260
4 266 267 265 264
4 270 271 269 268
4 274 275 273 272
4 278 279 277 276
4 282 283 281 280
4 286 287 285 284
4 290 291 289 288
4 294 295 293 292
4 298 299 297 296
4 302 303 301 300
4 307 306 305 304
4 310 309 308 311
4 315 314 313 312
4 318 317 316 319
3 320 323 321
3 320 324 323
3 320 325 324
3 323 322 321
4 329 328 327 326
4 332 331 330 333
3 335 338 336
3 335 334 338
3 338 337 336
3 345 340 339
3 345 344 340
3 340 344 341
3 341 344 343
3 343 342 341
4 348 349 347 346
4 352 353 351 350
4 356 357 355 354
4 360 361 359 358
4 364 365 363 362
4 368 369 367 366
4 372 373 371 370
4 376 377 375 374
4 380 381 379 378
4 384 385 383 382
4 388 389 387 386
4 392 393 391 390
4 396 397 395 394
4 400 401 399 398
4 404 405 403 402
4 408 409 407 406
4 412 413 411 410
4 416 417 415 414
4 420 421 419 418
4 424 425 423 422
4 428 429 427 426
4 432 433 431 430
4 436 437 435 434
4 440 441 439 438
